<svg fill="none" height="233" viewBox="0 0 246 233" width="246" xmlns="http://www.w3.org/2000/svg" xmlns:xlink="http://www.w3.org/1999/xlink"><linearGradient id="a"><stop offset="0" stop-color="#73a98d"/><stop offset=".44" stop-color="#70a68a"/><stop offset=".79" stop-color="#699c81"/><stop offset="1" stop-color="#629278"/></linearGradient><radialGradient id="b" cx="122.2" cy="66.11" gradientUnits="userSpaceOnUse" r="66.71" xlink:href="#a"/><radialGradient id="c" cx="55.16" cy="146" gradientUnits="userSpaceOnUse" r="73.18" xlink:href="#a"/><radialGradient id="d" cx="173.9" cy="146" gradientUnits="userSpaceOnUse" r="69.13"><stop offset="0" stop-color="#98c1aa"/><stop offset=".11" stop-color="#8abba0"/><stop offset=".31" stop-color="#79b395"/><stop offset=".53" stop-color="#6eae8d"/><stop offset=".82" stop-color="#6aaa8a"/><stop offset="1" stop-color="#68a989"/></radialGradient><path d="m122.2 6.91c-25.09 26.49-48.23 56.88-45.33 101 20.1 12.24 31.9 26.8 41 46.83l4.18-97.29 4.54 96.75c8.31-19.59 20.65-34.18 41.07-46.29 5.61-34.86-14.53-65.19-45.46-101z" fill="url(#b)"/><path d="m7.82 93.46c38.99 2.77 91.63 20.02 108.7 74.56 5.02 19.11 2.7 36.76-1.43 50.88-14.97-25.55-37.3-52.83-72.97-85.16 21.61 27.47 45.58 53.44 64.8 90.92-54.94 0-101.5-31.5-100.2-111 .11-6.43.48-13.25 1.11-20.25z" fill="url(#c)"/><path d="m237.8 93.46c-36.58 2.77-85.78 17.89-106.4 63.73-8.46 20.44-7.35 42.43-1.91 61.71 15.76-28.75 38.3-53.86 73.36-85.16-21.61 27.47-41.78 51.44-65.51 90.92 54.94 0 108.6-37.85 100.4-131.2z" fill="url(#d)"/></svg>