<svg xmlns="http://www.w3.org/2000/svg" viewBox="0 0 1200 630" role="img" aria-label="Spacious Clarity social card">
  <!-- Contour Field: Ivory ground, topographic ridge, Sun Clay anchor -->
  <rect width="1200" height="630" fill="#F6F2EA" />

  <g fill="none" stroke="#1A2129" stroke-linecap="round" stroke-linejoin="round" stroke-width="1.2" opacity="0.28">
    <path d="M 0 560 C 160 540 320 552 500 524 C 680 494 860 494 1020 516 C 1120 530 1200 544 1200 544" />
    <path d="M 0 480 C 180 440 380 432 580 420 C 760 410 920 428 1060 452 C 1160 470 1200 482 1200 482" />
    <path d="M 40 400 C 200 360 400 340 600 340 C 740 340 860 368 960 404 C 1040 430 1140 454 1200 446" />
  </g>

  <g fill="none" stroke="#1A2129" stroke-linecap="round" stroke-linejoin="round" stroke-width="1.5" opacity="0.55">
    <path d="M 680 320 C 760 286 880 270 980 276 C 1060 282 1140 310 1190 350 C 1210 366 1220 384 1220 400 C 1220 418 1160 428 1080 420 C 980 410 880 380 810 348 C 760 326 700 330 680 320 Z" />
    <path d="M 760 312 C 820 286 900 276 970 282 C 1030 288 1090 308 1130 336 C 1160 356 1170 374 1170 388 C 1170 404 1120 412 1060 408 C 980 402 910 376 860 354 C 816 332 776 324 760 312 Z" />
    <path d="M 820 316 C 858 298 912 292 958 298 C 998 302 1036 316 1062 334 C 1082 346 1090 360 1090 372 C 1090 384 1060 392 1018 392 C 966 390 916 376 880 360 C 848 346 828 332 820 316 Z" />
  </g>

  <!-- Sun Clay anchor over the peak -->
  <g transform="translate(956 316)">
    <circle r="56" fill="none" stroke="#C87435" stroke-opacity="0.26" stroke-width="1.2" />
    <circle r="36" fill="none" stroke="#C87435" stroke-opacity="0.36" stroke-width="1.2" />
    <circle r="18" fill="#C87435" />
  </g>

  <!-- Copy -->
  <text x="88" y="148" fill="#3D4750" font-family="'Host Grotesk', Helvetica, sans-serif" font-size="22" font-weight="600" letter-spacing="5.2">SPACIOUS CLARITY</text>

  <text x="88" y="256" fill="#1A2129" font-family="'Literata', Georgia, serif" font-size="78" font-weight="400">Meditation that welcomes</text>
  <text x="88" y="340" fill="#1A2129" font-family="'Literata', Georgia, serif" font-size="78" font-weight="400" font-style="italic">all of life.</text>

  <text x="88" y="558" fill="#3D4750" font-family="'Host Grotesk', Helvetica, sans-serif" font-size="22">An adaptive practice for steady, vivid presence.</text>

  <!-- small orienting dot on brand line -->
  <circle cx="72" cy="140" r="5" fill="#C87435" />
</svg>
